Coordinates
version=1
nRows=30
nColumns=19
inDegrees=yes

Units are S.I. units (second, meters, Newtons, ...)
If the header above contains a line with 'inDegrees', this indicates whether rotational values are in degrees (yes) or radians (no).

endheader
time	pelvis_tilt	pelvis_list	pelvis_rotation	pelvis_tx	pelvis_ty	pelvis_tz	hip_flexion_r	hip_adduction_r	hip_rotation_r	knee_angle_r	knee_angle_r_beta	ankle_angle_r	hip_flexion_l	hip_adduction_l	hip_rotation_l	knee_angle_l	knee_angle_l_beta	ankle_angle_l
     11.91333333	     -1.12068831	     -9.44663465	     -4.64847004	      2.25200289	      1.08497788	      1.07682169	     29.47502247	     14.37527792	     -6.62630966	     16.37545188	      0.28580555	      8.44100684	    -24.87396686	    -10.27849230	    -16.97680330	     57.88865728	      1.01034767	    -16.19275164
     11.92000000	     -0.79058937	     -9.88127259	     -5.08528586	      2.25263599	      1.08116329	      1.07781719	     28.55765550	     14.85665037	     -6.85898755	     17.04858860	      0.29755400	      7.40495020	    -24.04014543	    -11.00414009	    -17.19078332	     62.20026227	      1.08559937	    -15.51578562
     11.92666667	     -0.50589396	    -10.42393259	     -5.66221007	      2.25287842	      1.07699100	      1.07888739	     27.96020436	     15.40765180	     -7.28845738	     18.56594606	      0.32403689	      6.50130876	    -23.12941628	    -11.83407109	    -17.54231338	     66.52744887	      1.16112303	    -14.75266832
     11.93333333	     -0.61138028	    -10.88689560	     -6.33585678	      2.25265387	      1.07213288	      1.08002139	     28.07341207	     15.84732241	     -7.80741577	     20.90422858	      0.36484762	      5.83308113	    -21.64773305	    -12.61211792	    -17.72761164	     70.94855732	      1.23828592	    -13.78944210
     11.94000000	     -0.67645592	    -11.47371813	     -7.13097398	      2.25202103	      1.06711446	      1.08110966	     28.27842714	     16.39664154	     -8.30808439	     23.76326190	      0.41474716	      5.51048206	    -20.21265610	    -13.52292638	    -18.05384228	     75.30664615	      1.31434892	    -12.69701391
     11.94666667	     -0.81847834	    -12.10840486	     -7.99334931	      2.25093985	      1.06190728	      1.08213829	     28.64045201	     17.00250982	     -8.67462354	     26.96951748	      0.47070688	      5.59181736	    -18.62900345	    -14.51254836	    -18.34667666	     79.61559871	      1.38955433	    -11.44641692
     11.95333333	     -0.99986236	    -12.76906584	     -8.92141521	      2.24942373	      1.05668705	      1.08308147	     29.03449726	     17.67261104	     -8.83810991	     30.33382393	      0.52942510	      6.09670988	    -16.93471715	    -15.55547998	    -18.59525227	     83.83617803	      1.46321734	    -10.05797482
     11.96000000	     -1.21088841	    -13.45401551	     -9.83165739	      2.24747649	      1.05164200	      1.08386007	     29.37816535	     18.39198887	     -8.84194261	     33.66237418	      0.58751926	      7.02183031	    -15.08672746	    -16.66702622	    -18.68216598	     87.95095758	      1.53503379	     -8.60852683
     11.96666667	     -1.44200048	    -14.19086767	    -10.69839161	      2.24516003	      1.04692837	      1.08444774	     29.57848655	     19.19700350	     -8.68674599	     36.77529361	      0.64184996	      8.31705664	    -13.07910463	    -17.87027041	    -18.56376780	     91.93159683	      1.60450905	     -7.11997339
     11.97333333	     -1.67612305	    -14.96854395	    -11.46008622	      2.24253079	      1.04270234	      1.08479640	     29.56991174	     20.04648762	     -8.43490555	     39.55426866	      0.69035222	      9.92464040	    -10.88030586	    -19.15202044	    -18.14954517	     95.74782420	      1.67111478	     -5.66972342
     11.98000000	     -1.96604806	    -15.73372030	    -12.07465608	      2.23965615	      1.03901845	      1.08487328	     29.38801642	     20.86485325	     -8.13941720	     41.92435901	      0.73171810	     11.74301453	     -8.35993742	    -20.44346673	    -17.33439721	     99.37813807	      1.73447571	     -4.30904219
     11.98666667	     -1.84049281	    -16.53835806	    -12.47849677	      2.23661841	      1.03643576	      1.08458395	     28.48328970	     21.62856313	     -7.73108994	     43.83538775	      0.76507185	     13.86054004	     -6.07850848	    -21.65935565	    -16.22997677	    102.68108807	      1.79212307	     -3.11250812
     11.99333333	     -2.62637062	    -16.94185537	    -12.70698859	      2.23349866	      1.03345592	      1.08410596	     28.45027219	     22.00923234	     -7.50845844	     45.39851293	      0.79235353	     15.67697512	     -2.20406892	    -22.53299999	    -14.25808486	    105.91715184	      1.84860303	     -2.02504455
     12.00000000	     -2.93740447	    -17.43038531	    -12.62813468	      2.23050101	      1.03166954	      1.08321021	     27.61434630	     22.32324688	     -7.28644520	     46.42491863	      0.81026769	     17.54802411	      1.37113646	    -23.28640291	    -11.97353663	    108.73573005	      1.89779650	     -1.13271745
     12.00666667	     -3.35314007	    -17.64878010	    -12.36760578	      2.22755512	      1.03037053	      1.08213699	     26.71756336	     22.33504927	     -7.02665432	     47.06759064	      0.82148443	     19.33376613	      5.40503658	    -23.57782172	     -9.31005888	    111.22091404	      1.94117115	     -0.42336666
     12.01333333	     -3.63866923	    -17.74431211	    -11.83379459	      2.22489824	      1.02975964	      1.08078814	     25.49355814	     22.11818717	     -6.85455814	     47.30381410	      0.82560730	     20.90500543	      9.51072107	    -23.48328309	     -6.37436914	    113.29748625	      1.97741417	      0.16073020
     12.02000000	     -3.92239595	    -17.62883386	    -11.14751458	      2.22260485	      1.02969861	      1.07936008	     24.09647943	     21.66311265	     -6.67322476	     47.19542364	      0.82371553	     22.27153189	     13.69758140	    -22.93125384	     -3.38494997	    114.93710349	      2.00603089	      0.65288860
     12.02666667	     -3.78496095	    -17.43149142	    -10.28061934	      2.22081126	      1.03069449	      1.07783956	     22.02624843	     21.06703261	     -6.44702035	     46.69173760	      0.81492455	     23.44018136	     17.30290895	    -22.04270341	     -0.59453466	    116.04611655	      2.02538682	      1.12765649
     12.03333333	     -4.02327455	    -16.97333031	     -9.34046145	      2.21927324	      1.03173183	      1.07640783	     20.27363264	     20.25351772	     -6.34442740	     45.94381695	      0.80187088	     24.11532955	     21.31595359	    -20.73007101	      2.14929711	    116.79568154	      2.03846919	      1.55020146
     12.04000000	     -4.05717294	    -16.40943496	     -8.42660500	      2.21815289	      1.03347865	      1.07522436	     18.13339687	     19.41102766	     -6.06281635	     44.94174972	      0.78438150	     24.62052402	     24.80131240	    -19.24437783	      4.42796456	    117.05944725	      2.04307278	      2.02652688
     12.04666667	     -4.05210354	    -15.73599883	     -7.49560142	      2.21744198	      1.03578449	      1.07420440	     15.80286048	     18.49436302	     -5.79692851	     43.65256038	      0.76188091	     24.83207048	     27.99436686	    -17.62435528	      6.34780520	    116.88589978	      2.04004380	      2.54880735
     12.05333333	     -4.12730498	    -14.96605391	     -6.67204415	      2.21710025	      1.03843326	      1.07352748	     13.43834590	     17.57652984	     -5.45269647	     42.15992178	      0.73582945	     24.61547370	     30.98297369	    -15.98191283	      7.84265017	    116.31605238	      2.03009809	      3.14665581
     12.06000000	     -4.23685180	    -14.11826050	     -5.93464165	      2.21708209	      1.04145676	      1.07312241	     11.00136371	     16.64168088	     -5.06914014	     40.45644480	      0.70609817	     24.03104326	     33.72956933	    -14.37642617	      8.92842398	    115.36661561	      2.01352729	      3.80871819
     12.06666667	     -4.37213996	    -13.21190929	     -5.30661721	      2.21742092	      1.04480405	      1.07299041	      8.49831126	     15.70348255	     -4.63791792	     38.56857250	      0.67314858	     23.04571503	     36.22794979	    -12.87416721	      9.60822970	    114.06742576	      1.99085215	      4.54895968
     12.07333333	     -4.10699064	    -12.26403890	     -4.71491301	      2.21820506	      1.04897314	      1.07308741	      5.43265484	     14.74191056	     -4.10246960	     36.41022968	      0.63547839	     21.80047471	     37.97053659	    -11.51497145	      9.85042417	    112.38755113	      1.96153281	      5.41784925
     12.08000000	     -4.18262799	    -11.26441376	     -4.24846693	      2.21926460	      1.05289515	      1.07337789	      2.72418947	     13.75206288	     -3.67355746	     34.17007906	      0.59638039	     20.03038640	     39.89484243	    -10.26607375	      9.83239426	    110.46728659	      1.92801787	      6.29888416
     12.08666667	     -4.22815918	    -10.19486919	     -3.90182821	      2.22066078	      1.05703713	      1.07387574	     -0.04593321	     12.68855762	     -3.24323174	     31.80936225	      0.55517810	     17.79379820	     41.54403522	     -9.16784923	      9.44026765	    108.27116043	      1.88968823	      7.23391207
     12.09333333	     -4.32325609	     -9.07783173	     -3.61479127	      2.22238201	      1.06117530	      1.07447190	     -2.74588730	     11.55539900	     -2.95275724	     29.38134368	      0.51280119	     15.10906289	     43.04423928	     -8.18355516	      8.77899888	    105.83950291	      1.84724780	      8.20259298
     12.10000000	     -5.00431633	     -7.92851023	     -3.51637445	      2.22430144	      1.06456491	      1.07521635	     -4.67453014	     10.38269384	     -2.79118028	     27.13249765	      0.47355142	     11.82522683	     45.03224850	     -7.36231416	      7.87852083	    103.24649519	      1.80199128	      9.09125717
     12.10666667	     -4.47214904	     -6.61069398	     -3.17744505	      2.22679943	      1.06955179	      1.07580879	     -8.04171515	      8.97604642	     -2.83764206	     24.45351661	      0.42679438	      8.39644158	     45.37905231	     -6.40575834	      6.65122638	    100.28695528	      1.75033757	     10.19417917
